<?xml version="1.0" encoding="UTF-8" standalone="no"?>
<svg
   xmlns:dc="http://purl.org/dc/elements/1.1/"
   xmlns:cc="http://creativecommons.org/ns#"
   xmlns:rdf="http://www.w3.org/1999/02/22-rdf-syntax-ns#"
   xmlns:svg="http://www.w3.org/2000/svg"
   xmlns="http://www.w3.org/2000/svg"
   xmlns:sodipodi="http://sodipodi.sourceforge.net/DTD/sodipodi-0.dtd"
   xmlns:inkscape="http://www.inkscape.org/namespaces/inkscape"
   version="1.1"
   x="0px"
   y="0px"
   viewBox="0 0 300 300"
   enable-background="new 0 0 400 400"
   xml:space="preserve"
   width="300"
   height="300"
   id="svg3"
   sodipodi:docname="icon.svg"
   inkscape:version="1.0.1 (3bc2e813f5, 2020-09-07)"><metadata
     id="metadata9"><rdf:RDF><cc:Work
         rdf:about=""><dc:format>image/svg+xml</dc:format><dc:type
           rdf:resource="http://purl.org/dc/dcmitype/StillImage" /><dc:title></dc:title></cc:Work></rdf:RDF></metadata><defs
     id="defs7" /><sodipodi:namedview
     pagecolor="#ffffff"
     bordercolor="#666666"
     borderopacity="1"
     objecttolerance="10"
     gridtolerance="10"
     guidetolerance="10"
     inkscape:pageopacity="0"
     inkscape:pageshadow="2"
     inkscape:window-width="640"
     inkscape:window-height="480"
     id="namedview5"
     showgrid="false"
     inkscape:zoom="2.0533078"
     inkscape:cx="150"
     inkscape:cy="150"
     inkscape:current-layer="svg3" /><path
     style="display:inline;fill:#ff0000;fill-opacity:1;fill-rule:nonzero;stroke:none;stroke-width:1.47164"
     d="m 149.9077,45.840677 c 0,0 -93.035839,8.7e-5 -116.386616,6.067672 C 21.018298,55.401748 10.723209,65.697011 7.229809,78.383692 1.1622245,101.73447 1.1621377,150.09195 1.1621377,150.09195 c 0,0 8.68e-5,48.54111 6.0676713,71.52436 3.4934,12.6865 13.604594,22.79787 26.291275,26.29136 23.534672,6.25139 116.386616,6.25165 116.386616,6.25165 0,0 93.22033,-9e-5 116.57058,-6.06767 12.68678,-3.49349 22.7978,-13.42096 26.10739,-26.29136 6.25147,-23.16715 6.25165,-71.52436 6.25165,-71.52436 0,0 0.18415,-48.54146 -6.25165,-71.892239 C 289.27608,65.697011 279.16506,55.585905 266.47828,52.276313 243.12803,45.841024 149.9077,45.840677 149.9077,45.840677 Z m -29.60253,59.572993 77.40814,44.67828 -77.40814,44.49437 z"
     id="icon"
     inkscape:connector-curvature="0"
     inkscape:label="icon" /></svg>
